{"title":"Bhaji In Problem (2013) DVDRip - XviD - 1CD - Esub - [DDR]","uid":9409869,"size":730235189,"categoryP":"video","categoryS":"movies","magnet":"?xt=urn:btih:221e98811343aace76af93a01509a0b6831e1252&amp;dn=Bhaji+In+Problem+%282013%29+DVDRip+-+XviD+-+1CD+-+Esub+-+%5BDDR%5D&amp;tr=udp%3A%2F%2Ftracker.openbittorrent.com%3A80&amp;tr=udp%3A%2F%2Fopen.demonii.com%3A1337&amp;tr=udp%3A%2F%2Ftracker.coppersurfer.tk%3A6969&amp;tr=udp%3A%2F%2Fexodus.desync.com%3A6969","seeders":11,"leechers":2,"uploader":"SaM","files":4,"time":1388257908,"description":"Movie Info\n---------------------------------------------------------------------------------------------------------------------------------------\n\nMovie Name : Bhaji In Problem\nStarring : Gippy Grewal, Gurpreet Guggi, B. N. Sharma, Ompuri, Akshay Kumar &amp; More\nDirected : Smeep Kang\nMovie Release Date : 14 Nov 2013\nRipper : AnMoL\nSource : DVD9 My Own Collection\nAudio : Punjabi\nSubtitle : English\n\n---------------------------------------------------------------------------------------------------------------------------------------\nTech Info\n---------------------------------------------------------------------------------------------------------------------------------------\n\nFormat : AVI\nFormat/Info : Audio Video Interleave\nFile size : 696 MiB\nDuration : 1h 57mn\nOverall bit rate : 826 Kbps\n\nVideo\nCodec ID : XVID\nCodec ID/Hint : XviD\nDuration : 1h 57mn\nBit rate : 737 Kbps\nWidth : 640 pixels\nHeight : 272 pixels\nDisplay aspect ratio : 2.35:1\nFrame rate : 25.000 fps\nColor space : YUV\nChroma subsampling : 4:2:0\nBit depth : 8 bits\nScan type : Progressive\nCompression mode : Lossy\nBits/(Pixel*Frame) : 0.169\nStream size : 621 MiB (89%)\n\nAudio\nID : 1\nFormat : MPEG Audio\nFormat version : Version 1\nFormat profile : Layer 3\nMode : Joint stereo\nMode extension : MS Stereo\nCodec ID : 55\nCodec ID/Hint : MP3\nDuration : 1h 57mn\nBit rate mode : Constant\nBit rate : 80.0 Kbps\nChannel(s) : 2 channels\nSampling rate : 32.0 KHz\nCompression mode : Lossy\nStream size : 67.4 MiB (10%)\n\n---------------------------------------------------------------------------------------------------------------------------------------\nScreen Shot\n---------------------------------------------------------------------------------------------------------------------------------------\n &lt;a href=&quot;\nhttp://imageshack.us/a/img844/2703/qk9t.png&quot; rel=&quot;nofollow&quot; target=&quot;_NEW&quot;&gt;\nhttp://imageshack.us/a/img844/2703/qk9t.png&lt;/a&gt; &lt;a href=&quot;\nhttp://imageshack.us/a/img189/3904/fhf4.png&quot; rel=&quot;nofollow&quot; target=&quot;_NEW&quot;&gt;\nhttp://imageshack.us/a/img189/3904/fhf4.png&lt;/a&gt; &lt;a href=&quot;\nhttp://imageshack.us/a/img854/7633/pvza.png&quot; rel=&quot;nofollow&quot; target=&quot;_NEW&quot;&gt;\nhttp://imageshack.us/a/img854/7633/pvza.png&lt;/a&gt; &lt;a href=&quot;\nhttp://imageshack.us/a/img802/4425/5gg0.png&quot; rel=&quot;nofollow&quot; target=&quot;_NEW&quot;&gt;\nhttp://imageshack.us/a/img802/4425/5gg0.png&lt;/a&gt; &lt;a href=&quot;\nhttp://imageshack.us/a/img543/9794/5qau.png&quot; rel=&quot;nofollow&quot; target=&quot;_NEW&quot;&gt;\nhttp://imageshack.us/a/img543/9794/5qau.png&lt;/a&gt; &lt;a href=&quot;\nhttp://imageshack.us/a/img855/150/fgl3.png&quot; rel=&quot;nofollow&quot; target=&quot;_NEW&quot;&gt;\nhttp://imageshack.us/a/img855/150/fgl3.png&lt;/a&gt; &lt;a href=&quot;\nhttp://imageshack.us/a/img812/7652/si8s.png&quot; rel=&quot;nofollow&quot; target=&quot;_NEW&quot;&gt;\nhttp://imageshack.us/a/img812/7652/si8s.png&lt;/a&gt; &lt;a href=&quot;\nhttp://imageshack.us/a/img826/9729/wxmz.png&quot; rel=&quot;nofollow&quot; target=&quot;_NEW&quot;&gt;\nhttp://imageshack.us/a/img826/9729/wxmz.png&lt;/a&gt; &lt;a href=&quot;\nhttp://imageshack.us/a/img607/854/q7uk.png&quot; rel=&quot;nofollow&quot; target=&quot;_NEW&quot;&gt;\nhttp://imageshack.us/a/img607/854/q7uk.png&lt;/a&gt;\n\n\n---------------------------------------------------------------------------------------------------------------------------------------\n\n\nSample","torrent":{"xt":"urn:btih:221e98811343aace76af93a01509a0b6831e1252","amp;dn":"Bhaji+In+Problem+%282013%29+DVDRip+-+XviD+-+1CD+-+Esub+-+%5BDDR%5D","amp;tr":["udp%3A%2F%2Ftracker.openbittorrent.com%3A80","udp%3A%2F%2Fopen.demonii.com%3A1337","udp%3A%2F%2Ftracker.coppersurfer.tk%3A6969","udp%3A%2F%2Fexodus.desync.com%3A6969"],"infoHash":"221e98811343aace76af93a01509a0b6831e1252","infoHashBuffer":{"type":"Buffer","data":[34,30,152,129,19,67,170,206,118,175,147,160,21,9,160,182,131,30,18,82]},"announce":[],"urlList":[]}}